<svg width="50" height="50" viewBox="0 0 50 50" fill="none" xmlns="http://www.w3.org/2000/svg">
<path d="M35.4567 33.1931C35.9395 33.6876 36.3938 34.1525 36.9043 34.6755C37.7084 33.8491 38.5339 33.0004 39.3665 32.1445C39.4861 32.2454 39.5566 32.2971 39.6182 32.3578C42.5624 35.302 45.5236 38.2301 48.4445 41.1984C51.1986 43.9971 50.1446 48.5415 46.4713 49.7275C44.4642 50.3755 42.6856 49.8802 41.1862 48.4139C39.9743 47.2287 38.7847 46.0203 37.5861 44.8218C35.861 43.0975 34.1368 41.3733 32.4126 39.6482C32.3394 39.5751 32.2734 39.4965 32.1448 39.3546C33.0141 38.5389 33.878 37.7295 34.7035 36.9557C34.1448 36.3988 33.6763 35.9312 33.1881 35.4439C28.4992 39.2913 23.0686 40.9244 16.9652 39.9767C11.9443 39.1967 7.77653 36.7737 4.58156 32.8344C-2.16178 24.523 -1.25951 13.0854 5.96129 5.89671C13.3561 -1.4651 24.8375 -1.97559 32.915 4.60087C40.8284 11.0435 43.371 23.8394 35.4576 33.1931H35.4567ZM36.1573 20.1661C36.1903 11.3674 28.9963 4.14126 20.1771 4.11448C11.3695 4.08771 4.15676 11.2657 4.12641 20.0902C4.09518 28.8933 11.2723 36.1061 20.1021 36.1454C28.8919 36.1846 36.1243 28.9861 36.1573 20.1661Z" fill="#F4B614"/>
<path d="M33.2041 20.1295C33.1158 27.4137 27.3693 33.1834 20.1262 33.1735C12.8251 33.1646 7.09018 27.3093 7.09375 20.1036C7.09732 12.9051 12.9536 7.06316 20.1298 7.08011C27.3747 7.09796 33.122 12.8668 33.2041 20.1295ZM31.0257 20.0956C31.1212 13.7646 25.4693 8.9846 20.1306 9.27822C20.1306 10.0895 20.1494 10.9052 20.1226 11.7191C20.1101 12.0957 20.2511 12.193 20.6036 12.2153C24.169 12.4428 27.0034 14.8069 27.8655 18.2839C28.0101 18.8685 28.0529 19.478 28.1457 20.0956H31.0257Z" fill="#F4B614"/>
</svg>
